<?xml version="1.0" encoding="UTF-8" standalone="no"?>
<!-- Generator: Adobe Illustrator 26.0.1, SVG Export Plug-In . SVG Version: 6.00 Build 0)  -->

<svg
   version="1.1"
   id="Layer_1"
   x="0px"
   y="0px"
   viewBox="0 0 516.74029 167.25848"
   xml:space="preserve"
   sodipodi:docname="Azoteq.svg"
   inkscape:version="1.1.1 (3bf5ae0d25, 2021-09-20)"
   width="516.74054"
   height="167.25848"
   xmlns:inkscape="http://www.inkscape.org/namespaces/inkscape"
   xmlns:sodipodi="http://sodipodi.sourceforge.net/DTD/sodipodi-0.dtd"
   xmlns="http://www.w3.org/2000/svg"
   xmlns:svg="http://www.w3.org/2000/svg"><defs
   id="defs45" /><sodipodi:namedview
   id="namedview43"
   pagecolor="#ffffff"
   bordercolor="#111111"
   borderopacity="1"
   inkscape:pageshadow="0"
   inkscape:pageopacity="0"
   inkscape:pagecheckerboard="1"
   showgrid="false"
   inkscape:zoom="1.0084453"
   inkscape:cx="108.08717"
   inkscape:cy="128.41549"
   inkscape:window-width="2479"
   inkscape:window-height="1057"
   inkscape:window-x="-8"
   inkscape:window-y="-8"
   inkscape:window-maximized="1"
   inkscape:current-layer="Layer_1"
   units="px"
   width="209mm"
   fit-margin-top="5"
   fit-margin-left="5"
   fit-margin-right="5"
   fit-margin-bottom="5" />
<style
   type="text/css"
   id="style28">
	.st0{fill:#1E4383;}
	.st1{fill:#BE1E2D;}
	.st2{font-family:'CenturyGothic-BoldItalic';}
	.st3{font-size:120.1742px;}
</style>
<g
   id="g38"
   transform="translate(-46.331547,-291.40253)">
	<path
   class="st0"
   d="m 131.12,313.27 c -0.63,2.08 -1.21,4.03 -1.8,5.99 -1.96,6.47 -3.93,12.95 -5.89,19.42 -2.38,7.85 -4.77,15.71 -7.15,23.56 -1.81,5.98 -3.61,11.97 -5.43,17.96 -1.66,5.49 -3.34,10.99 -4.99,16.48 -0.13,0.42 -0.31,0.57 -0.76,0.56 -3.9,-0.13 -7.81,-0.24 -11.71,-0.35 -2.38,-0.07 -4.76,-0.15 -7.15,-0.21 -4.05,-0.11 -8.1,-0.22 -12.15,-0.34 -2.46,-0.07 -4.91,-0.14 -7.37,-0.22 -2.38,-0.08 -4.75,-0.17 -7.23,-0.25 23.88,-27.54 47.72,-55.02 71.63,-82.6 z"
   id="path30" />
	<path
   class="st0"
   d="m 63.34,374.64 c -0.64,2.02 -1.31,4.03 -1.91,6.06 -1.03,3.46 -1.81,6.97 -2.32,10.54 -0.4,2.76 -0.59,5.54 -0.45,8.33 0.16,3.3 0.71,6.51 2.29,9.47 1.9,3.57 4.8,5.81 8.8,6.54 3.39,0.62 6.7,0.14 9.97,-0.82 5.29,-1.57 10.04,-4.22 14.57,-7.31 6.74,-4.6 12.71,-10.09 18.28,-16.04 4.57,-4.88 8.79,-10.04 12.75,-15.42 3.81,-5.17 7.41,-10.48 10.58,-16.06 2.14,-3.75 4.05,-7.63 6.07,-11.45 0.07,-0.13 0.13,-0.25 0.2,-0.38 0.05,0.02 0.11,0.04 0.16,0.06 -0.97,3.08 -1.86,6.19 -2.93,9.23 -2.83,8.12 -6.54,15.83 -10.8,23.29 -3.44,6.02 -7.24,11.81 -11.36,17.4 -4.89,6.64 -10.19,12.94 -16.07,18.73 -0.72,0.71 -1.47,1.39 -2.18,2.1 -0.27,0.27 -0.45,0.25 -0.73,0.02 -5.46,-4.38 -13.16,-2.3 -16.05,4.06 -1.23,2.68 -1.43,5.46 -0.6,8.3 0.1,0.34 0.01,0.47 -0.29,0.63 -3.26,1.7 -6.63,3.08 -10.25,3.81 -3.34,0.67 -6.66,0.75 -9.91,-0.44 -3.81,-1.4 -6.29,-4.18 -7.86,-7.84 -0.99,-2.3 -1.58,-4.72 -1.75,-7.22 -0.14,-2.08 -0.28,-4.18 -0.19,-6.26 0.18,-4.08 0.84,-8.11 1.77,-12.08 1.53,-6.54 3.7,-12.86 6.36,-19.02 1.14,-2.64 2.39,-5.23 3.59,-7.84 0.07,-0.15 0.15,-0.29 0.23,-0.43 0.01,0.01 0.02,0.02 0.03,0.04 z"
   id="path32" />
	<path
   class="st0"
   d="m 142.89,346.1 c 0.33,-1.96 0.7,-3.9 0.98,-5.85 0.49,-3.38 0.65,-6.78 0.42,-10.19 -0.19,-2.91 -0.71,-5.73 -1.8,-8.44 -1.34,-3.32 -3.44,-5.99 -6.68,-7.66 -1.68,-0.86 -3.48,-1.33 -5.35,-1.53 -4.82,-0.51 -9.29,0.79 -13.61,2.73 -4.15,1.87 -7.94,4.34 -11.55,7.08 -6.39,4.86 -12.13,10.42 -17.51,16.34 -2.3,2.54 -4.56,5.12 -6.72,7.78 -3,3.7 -5.76,7.59 -8.37,11.59 -2.75,4.2 -5.31,8.52 -7.67,12.96 -0.03,0.06 -0.07,0.12 -0.18,0.15 0.63,-1.51 1.24,-3.03 1.9,-4.53 2.05,-4.66 4.34,-9.21 6.85,-13.64 2.74,-4.85 5.75,-9.54 8.95,-14.1 3.95,-5.63 8.18,-11.05 12.78,-16.16 3.87,-4.3 7.96,-8.37 12.39,-12.09 3.81,-3.21 7.81,-6.14 12.13,-8.61 3.27,-1.87 6.67,-3.43 10.3,-4.47 2.66,-0.76 5.37,-1.21 8.13,-1.01 5.38,0.38 9.31,3.2 11.34,8.43 1.03,2.66 1.43,5.43 1.54,8.26 0.15,3.94 -0.33,7.81 -1.09,11.67 -1.46,7.37 -4.05,14.35 -7.09,21.19 -0.01,0.03 -0.06,0.07 -0.09,0.1 z"
   id="path34" />
	<path
   class="st1"
   d="m 101.73,430.61 c -0.14,3.39 -1.53,6.09 -4.58,7.71 -4.41,2.35 -9.53,-0.08 -11.15,-4.54 -0.83,-2.28 -0.8,-4.52 0.1,-6.74 0.75,-1.84 2.02,-3.27 3.76,-4.21 3.45,-1.86 7.42,-0.94 9.86,2.04 1.36,1.66 2.02,3.58 2.01,5.74 z"
   id="path36" />
</g>
<text
   class="st2 st3"
   id="text40"
   style="font-size:120px"
   x="104.86555"
   y="138.93817"><tspan
     style="font-style:italic;font-variant:normal;font-weight:bold;font-stretch:normal;font-size:120px;font-family:'Century Gothic';-inkscape-font-specification:'Century Gothic Bold Italic'"
     id="tspan1241">Azoteq</tspan></text>
</svg>
